# xmcd
#
# Track frame offsets:
#	150
#	11080
#	21727
#	32755
#	44270
#	55430
#	63860
#	74130
#	81865
#	90250
#	105372
#	118675
#	127072
#	134445
#	142292
#	152485
#	165865
#	175925
#	185215
#	198930
#	205925
#	213912
#	228492
#	239860
#	244972
#
# Disc length: 3454 seconds
#
# Revision: 2
# Processed by: cddbd v1.5.2PL0 Copyright (c) Steve Scherf et al.
# Submitted via: dBpowerAMP V4.0
#
DISCID=770d7c19
DTITLE=Андрей Макаревич - Песни под гитару
DYEAR=1995
DGENRE=Acoustic
TTITLE0=Я снова жду...
TTITLE1=Паузы
TTITLE2=Нас ещё не согнули годы
TTITLE3=Памяти Галича
TTITLE4=Три сестры
TTITLE5=Песня перемен
TTITLE6=Посвящение артистам
TTITLE7=Уходящее лето
TTITLE8=Маленькие герои
TTITLE9=Варьете
TTITLE10=Здорово, Миша...
TTITLE11=Я хотел бы пройти сто дорог
TTITLE12=Посвящение корове
TTITLE13=Песня про первых
TTITLE14=Ах, какой был изысканный бал
TTITLE15=Мой приятель-художник
TTITLE16=Памяти Высоцкого
TTITLE17=Слишком короток век
TTITLE18=Видеомагнитофон
TTITLE19=Посвящение корове
TTITLE20=Верблюд
TTITLE21=Ах, варьете...
TTITLE22=Наши 15 лет
TTITLE23=Выступление на "Рок-поэзии"
TTITLE24=Воды нашей реки (Посвящение Б.Окуджаве)
EXTD=
EXTT0=
EXTT1=
EXTT2=
EXTT3=
EXTT4=
EXTT5=
EXTT6=
EXTT7=
EXTT8=
EXTT9=
EXTT10=
EXTT11=
EXTT12=
EXTT13=
EXTT14=
EXTT15=
EXTT16=
EXTT17=
EXTT18=
EXTT19=
EXTT20=
EXTT21=
EXTT22=
EXTT23=
EXTT24=
PLAYORDER=
